<svg id="Capa_1" data-name="Capa 1" xmlns="http://www.w3.org/2000/svg" viewBox="0 0 471.2 471.2"><defs><style>.cls-1{fill:#ed1a2d;stroke:#ed1a2d;stroke-miterlimit:10;stroke-width:5px;}</style></defs><title>arrow_right_red</title><path class="cls-1" d="M408.74,246.19A15.62,15.62,0,0,0,413,235.54a15.16,15.16,0,0,0-4.26-10.65l-91.28-96.18a13.81,13.81,0,0,0-20.32,0,15.68,15.68,0,0,0,0,21.41L364,220.41H72.56c-8,0-14.36,6.73-14.36,15.13s6.38,15.14,14.36,15.14H364l-66.82,70.4a15.68,15.68,0,0,0,0,21.41,13.81,13.81,0,0,0,20.32,0Z"/></svg>