<?xml version="1.0" encoding="utf-8"?>
<!-- Generator: Adobe Illustrator 23.0.1, SVG Export Plug-In . SVG Version: 6.00 Build 0)  -->
<svg version="1.1" id="Laag_1" xmlns="http://www.w3.org/2000/svg" xmlns:xlink="http://www.w3.org/1999/xlink" x="0px" y="0px"
	 viewBox="0 0 512 512" style="enable-background:new 0 0 512 512;" xml:space="preserve">
<style type="text/css">
	.st0{fill:#ED1A2D;}
</style>
<path class="st0" d="M270,111c-4.9-0.5-9.9-0.8-15-0.8c-79.8,0-144.8,64.9-144.8,144.8c0,79.8,64.9,144.8,144.8,144.8
	c5.1,0,10.1-0.3,15-0.8c72.8-7.5,129.8-69.2,129.8-144S342.8,118.5,270,111z M270,368.8V141.2c56.2,7.4,99.8,55.6,99.8,113.8
	S326.2,361.4,270,368.8z"/>
<path class="st0" d="M255,88.5c8.3,0,15-6.7,15-15V14c0-8.3-6.7-15-15-15c-8.3,0-15,6.7-15,15v59.5C240,81.8,246.7,88.5,255,88.5z"
	/>
<path class="st0" d="M255,421.5c-8.3,0-15,6.7-15,15V496c0,8.3,6.7,15,15,15c8.3,0,15-6.7,15-15v-59.5
	C270,428.2,263.3,421.5,255,421.5z"/>
<path class="st0" d="M88.5,255c0-8.3-6.7-15-15-15H14c-8.3,0-15,6.7-15,15c0,8.3,6.7,15,15,15h59.5C81.8,270,88.5,263.3,88.5,255z"
	/>
<path class="st0" d="M496,240h-59.5c-8.3,0-15,6.7-15,15c0,8.3,6.7,15,15,15H496c8.3,0,15-6.7,15-15C511,246.7,504.3,240,496,240z"
	/>
<path class="st0" d="M112.5,133.7c2.9,2.9,6.8,4.4,10.6,4.4c3.8,0,7.7-1.5,10.6-4.4c5.9-5.9,5.9-15.4,0-21.2L90.4,69.2
	c-5.9-5.9-15.4-5.9-21.2,0c-5.9,5.9-5.9,15.4,0,21.2L112.5,133.7z"/>
<path class="st0" d="M397.5,376.3c-5.9-5.9-15.4-5.9-21.2,0c-5.9,5.9-5.9,15.4,0,21.2l43.3,43.3c2.9,2.9,6.8,4.4,10.6,4.4
	c3.8,0,7.7-1.5,10.6-4.4c5.9-5.9,5.9-15.4,0-21.2L397.5,376.3z"/>
<path class="st0" d="M112.5,376.3l-43.3,43.3c-5.9,5.9-5.9,15.4,0,21.2c2.9,2.9,6.8,4.4,10.6,4.4c3.8,0,7.7-1.5,10.6-4.4l43.3-43.3
	c5.9-5.9,5.9-15.4,0-21.2C127.8,370.4,118.3,370.4,112.5,376.3z"/>
<path class="st0" d="M386.9,138.1c3.8,0,7.7-1.5,10.6-4.4l43.3-43.3c5.9-5.9,5.9-15.4,0-21.2c-5.9-5.9-15.4-5.9-21.2,0l-43.3,43.3
	c-5.9,5.9-5.9,15.4,0,21.2C379.2,136.6,383.1,138.1,386.9,138.1z"/>
</svg>
