<?xml version="1.0" encoding="utf-8"?>
<!-- Generator: Adobe Illustrator 23.0.1, SVG Export Plug-In . SVG Version: 6.00 Build 0)  -->
<svg version="1.1" id="Laag_1" xmlns="http://www.w3.org/2000/svg" xmlns:xlink="http://www.w3.org/1999/xlink" x="0px" y="0px"
	 viewBox="0 0 200 200" style="enable-background:new 0 0 200 200;" xml:space="preserve">
<style type="text/css">
	.st0{fill:#ED1A2D;}
</style>
<g>
	<path class="st0" d="M110.9,97.9l54.3-54.3c3.1-3.1,3.1-8.2,0-11.3s-8.2-3.1-11.3,0L99.6,86.6L45.3,32.2c-3.1-3.1-8.2-3.1-11.3,0
		s-3.1,8.2,0,11.3l54.3,54.3L34,152.2c-3.1,3.1-3.1,8.2,0,11.3s8.2,3.1,11.3,0l54.3-54.3l54.3,54.3c3.1,3.1,8.2,3.1,11.3,0
		s3.1-8.2,0-11.3L110.9,97.9z"/>
</g>
</svg>
