<?xml version="1.0" encoding="utf-8"?>
<!-- Generator: Adobe Illustrator 23.0.1, SVG Export Plug-In . SVG Version: 6.00 Build 0)  -->
<svg version="1.1" id="Capa_1" xmlns="http://www.w3.org/2000/svg" xmlns:xlink="http://www.w3.org/1999/xlink" x="0px" y="0px"
	 viewBox="0 0 471.2 471.2" style="enable-background:new 0 0 471.2 471.2;" xml:space="preserve">
<style type="text/css">
	.st0{fill:#ED1A2D;}
</style>
<g>
	<g>
		<path class="st0" d="M226.1,388.5c2.6,2.6,6.1,4,9.5,4s6.9-1.3,9.5-4l85.8-85.8c5.3-5.3,5.3-13.8,0-19.1c-5.3-5.3-13.8-5.3-19.1,0
			l-62.7,62.8V72.5c0-7.5-6-13.5-13.5-13.5s-13.5,6-13.5,13.5v273.9l-62.8-62.8c-5.3-5.3-13.8-5.3-19.1,0c-5.3,5.3-5.3,13.8,0,19.1
			L226.1,388.5z"/>
	</g>
</g>
<path class="st0" d="M136.3,427.1L136.3,427.1c0-7.5,6.1-13.6,13.5-13.6h171.6c7.5,0,13.6,6.1,13.6,13.5v0c0,7.5-6.1,13.5-13.6,13.5
	H149.8C142.3,440.7,136.3,434.6,136.3,427.1z"/>
</svg>
