<?xml version="1.0" encoding="utf-8"?>
<!-- Generator: Adobe Illustrator 23.0.1, SVG Export Plug-In . SVG Version: 6.00 Build 0)  -->
<svg version="1.1" id="Capa_1" xmlns="http://www.w3.org/2000/svg" xmlns:xlink="http://www.w3.org/1999/xlink" x="0px" y="0px"
	 viewBox="0 0 471.2 471.2" style="enable-background:new 0 0 471.2 471.2;" xml:space="preserve">
<style type="text/css">
	.st0{fill:#FFFFFF;stroke:#FFFFFF;stroke-width:5;stroke-miterlimit:10;}
	.st1{fill:#FFFFFF;stroke:#FFFFFF;stroke-width:3;stroke-miterlimit:10;}
</style>
<g>
	<g>
		<path class="st0" d="M226.1,364.1c2.6,2.5,6.1,3.8,9.5,3.8s6.9-1.2,9.5-3.8l85.8-81.4c5.3-5,5.3-13.1,0-18.1s-13.8-5-19.1,0
			l-62.7,59.6v-260c0-7.1-6-12.8-13.5-12.8s-13.5,5.7-13.5,12.8v259.9l-62.8-59.6c-5.3-5-13.8-5-19.1,0s-5.3,13.1,0,18.1
			L226.1,364.1z"/>
	</g>
</g>
<path class="st1" d="M136.3,404.4L136.3,404.4c0-7.5,6.1-13.6,13.5-13.6h171.6c7.5,0,13.6,6.1,13.6,13.5l0,0
	c0,7.5-6.1,13.5-13.6,13.5H149.8C142.3,418,136.3,411.9,136.3,404.4z"/>
</svg>
