<?xml version="1.0" encoding="utf-8"?>
<!-- Generator: Adobe Illustrator 23.0.1, SVG Export Plug-In . SVG Version: 6.00 Build 0)  -->
<svg version="1.1" id="Laag_1" xmlns="http://www.w3.org/2000/svg" xmlns:xlink="http://www.w3.org/1999/xlink" x="0px" y="0px"
	 viewBox="0 0 200 200" style="enable-background:new 0 0 200 200;" xml:space="preserve">
<style type="text/css">
	.st0{fill:#ED1A2D;}
</style>
<path class="st0" d="M178.3,65.7H98.9c-2.6-12-13.2-21-26-21c-12.8,0-23.4,9-26,21H20.7c-3.1,0-5.7,2.6-5.7,5.7c0,1.6,0.6,3,1.7,4
	c1,1,2.5,1.7,4,1.7h26.2c2.6,11.9,13.3,20.8,26,20.8c12.7,0,23.3-8.9,26-20.8h79.4c3.1,0,5.7-2.6,5.7-5.7S181.4,65.7,178.3,65.7z
	 M72.9,86.3c-8.3,0-15-6.7-15-15c0-8.3,6.7-15,15-15c8.3,0,15,6.7,15,15C87.9,79.6,81.2,86.3,72.9,86.3z"/>
<path class="st0" d="M20.7,135.9h79.4c2.6,12,13.2,21,26,21c12.8,0,23.4-9,26-21h26.2c3.1,0,5.7-2.6,5.7-5.7c0-1.6-0.6-3-1.7-4
	c-1-1-2.5-1.7-4-1.7h-26.2c-2.6-11.9-13.3-20.8-26-20.8c-12.7,0-23.3,8.9-26,20.8H20.7c-3.1,0-5.7,2.6-5.7,5.7
	S17.6,135.9,20.7,135.9z M126.1,115.3c8.3,0,15,6.7,15,15c0,8.3-6.7,15-15,15c-8.3,0-15-6.7-15-15
	C111.1,122,117.8,115.3,126.1,115.3z"/>
</svg>
