<svg id="Laag_1" data-name="Laag 1" xmlns="http://www.w3.org/2000/svg" viewBox="0 0 200 200"><defs><style>.cls-1{fill:#ed1a2d;stroke:#ed1a2d;stroke-miterlimit:10;stroke-width:2px;}</style></defs><title>home</title><path class="cls-1" d="M185,119.46,145.67,79.1,103.28,35.56a4,4,0,0,0-5.64,0L55.25,79.1,15.93,119.46a3.6,3.6,0,0,0,2.83,6.06h7.68a4,4,0,0,0,2.82-1.16l3.4-3.49v54.35A4.54,4.54,0,0,0,36.92,180H163a4.54,4.54,0,0,0,4.26-4.78V119.83l4.41,4.53a4,4,0,0,0,2.82,1.16h7.68A3.6,3.6,0,0,0,185,119.46Zm-28.77,49.4H44.79V108.41L55.25,97.67,97.64,54.14a4,4,0,0,1,5.64,0l42.39,43.53,10.55,10.83Z"/></svg>