<?xml version="1.0" encoding="utf-8"?>
<!-- Generator: Adobe Illustrator 23.0.1, SVG Export Plug-In . SVG Version: 6.00 Build 0)  -->
<svg version="1.1" id="Laag_1" xmlns="http://www.w3.org/2000/svg" xmlns:xlink="http://www.w3.org/1999/xlink" x="0px" y="0px"
	 viewBox="0 0 200 200" style="enable-background:new 0 0 200 200;" xml:space="preserve">
<style type="text/css">
	.st0{fill:#FFFFFF;}
</style>
<title>loop</title>
<path class="st0" d="M176.6,166.1l-35.2-35.2c23.5-28.7,19.3-70.9-9.3-94.4s-70.9-19.3-94.4,9.3s-19.3,70.9,9.3,94.4
	c23.6,19.4,57.4,20.3,82.1,2.4l35.6,35.6c1.8,1.8,4.8,1.8,6.7,0l5.4-5.4C178.5,170.9,178.5,167.9,176.6,166.1z M88.9,138.5
	c-28.1,0-50.8-22.7-50.8-50.8s22.7-50.8,50.8-50.8s50.8,22.7,50.8,50.8l0,0C139.7,115.7,116.9,138.5,88.9,138.5z"/>
</svg>
