<?xml version="1.0" encoding="utf-8"?>
<!-- Generator: Adobe Illustrator 23.0.1, SVG Export Plug-In . SVG Version: 6.00 Build 0)  -->
<svg version="1.1" id="Laag_1" xmlns="http://www.w3.org/2000/svg" xmlns:xlink="http://www.w3.org/1999/xlink" x="0px" y="0px"
	 viewBox="0 0 200 200" style="enable-background:new 0 0 200 200;" xml:space="preserve">
<style type="text/css">
	.st0{fill:#BABABA;}
	.st1{fill:#BABABA;stroke:#BABABA;stroke-miterlimit:10;}
</style>
<g>
	<g>
		<path class="st0" d="M97.6,110.9c0.5,0.5,1.3,0.8,2,0.8s1.4-0.2,2-0.8L119.4,94c1.1-1,1.1-2.7,0-3.8c-1.1-1-2.9-1-4,0l-13,12.4
			V48.7c0-1.5-1.2-2.7-2.8-2.7s-2.8,1.2-2.8,2.7v53.9l-13-12.4c-1.1-1-2.9-1-4,0c-1.1,1-1.1,2.7,0,3.8L97.6,110.9z"/>
	</g>
</g>
<path class="st0" d="M79,119.2L79,119.2c0-1.6,1.3-2.8,2.8-2.8h35.6c1.6,0,2.8,1.3,2.8,2.8l0,0c0,1.6-1.3,2.8-2.8,2.8H81.8
	C80.3,122,79,120.8,79,119.2z"/>
<g>
	<path class="st1" d="M41.1,146.1c-0.6,0-1.1-0.1-1.6-0.2c-0.5-0.2-0.9-0.4-1.3-0.8s-0.6-0.9-0.8-1.5c-0.2-0.6-0.3-1.4-0.3-2.3v-6.5
		h1.4v6.6c0,0.7,0.1,1.2,0.2,1.7c0.1,0.5,0.3,0.8,0.6,1.1c0.2,0.3,0.5,0.5,0.8,0.6c0.3,0.1,0.7,0.2,1,0.2c0.4,0,0.7-0.1,1-0.2
		s0.6-0.3,0.8-0.6c0.2-0.3,0.4-0.6,0.6-1.1c0.1-0.5,0.2-1,0.2-1.7v-6.6h1.4v6.5c0,0.9-0.1,1.6-0.3,2.3c-0.2,0.6-0.5,1.1-0.8,1.5
		s-0.8,0.7-1.3,0.8C42.2,146,41.7,146.1,41.1,146.1z"/>
	<path class="st1" d="M51.4,145.9v-12.1h1.4v3.3l-0.1,1.7c0.4-0.4,0.8-0.7,1.2-1s0.9-0.4,1.5-0.4c0.9,0,1.5,0.3,1.9,0.8
		s0.6,1.3,0.6,2.4v5.2h-1.4v-5c0-0.8-0.1-1.3-0.4-1.7c-0.2-0.3-0.6-0.5-1.2-0.5c-0.4,0-0.8,0.1-1.1,0.3c-0.3,0.2-0.7,0.5-1.1,1v6
		H51.4z"/>
	<path class="st1" d="M64,146.1c-0.6,0-1.1-0.1-1.6-0.3c-0.5-0.2-0.9-0.5-1.3-0.8c-0.4-0.4-0.6-0.8-0.8-1.4
		c-0.2-0.5-0.3-1.1-0.3-1.8c0-0.7,0.1-1.3,0.3-1.8c0.2-0.5,0.5-1,0.8-1.4c0.3-0.4,0.7-0.7,1.2-0.9c0.4-0.2,0.9-0.3,1.4-0.3
		c0.5,0,1,0.1,1.4,0.3c0.4,0.2,0.8,0.4,1,0.8c0.3,0.3,0.5,0.7,0.6,1.2c0.1,0.5,0.2,1,0.2,1.6c0,0.1,0,0.3,0,0.4s0,0.3,0,0.4h-5.6
		c0.1,0.9,0.3,1.6,0.8,2.1c0.5,0.5,1.1,0.8,1.9,0.8c0.4,0,0.8-0.1,1.1-0.2c0.3-0.1,0.7-0.3,1-0.5l0.5,0.9c-0.4,0.2-0.8,0.4-1.2,0.6
		C65,146,64.5,146.1,64,146.1z M61.4,141.1h4.4c0-0.8-0.2-1.5-0.5-1.9c-0.4-0.4-0.9-0.7-1.5-0.7c-0.3,0-0.6,0.1-0.8,0.2
		c-0.3,0.1-0.5,0.3-0.7,0.5s-0.4,0.5-0.5,0.8S61.4,140.7,61.4,141.1z"/>
	<path class="st1" d="M72.4,146.1c-0.6,0-1.1-0.1-1.6-0.3c-0.5-0.2-0.9-0.5-1.3-0.8c-0.4-0.4-0.6-0.8-0.8-1.4
		c-0.2-0.5-0.3-1.1-0.3-1.8c0-0.7,0.1-1.3,0.3-1.8c0.2-0.5,0.5-1,0.8-1.4c0.3-0.4,0.7-0.7,1.2-0.9c0.4-0.2,0.9-0.3,1.4-0.3
		c0.5,0,1,0.1,1.4,0.3c0.4,0.2,0.8,0.4,1,0.8c0.3,0.3,0.5,0.7,0.6,1.2c0.1,0.5,0.2,1,0.2,1.6c0,0.1,0,0.3,0,0.4s0,0.3,0,0.4h-5.6
		c0.1,0.9,0.3,1.6,0.8,2.1c0.5,0.5,1.1,0.8,1.9,0.8c0.4,0,0.8-0.1,1.1-0.2c0.3-0.1,0.7-0.3,1-0.5l0.5,0.9c-0.4,0.2-0.8,0.4-1.2,0.6
		C73.5,146,73,146.1,72.4,146.1z M69.8,141.1h4.4c0-0.8-0.2-1.5-0.5-1.9c-0.4-0.4-0.9-0.7-1.5-0.7c-0.3,0-0.6,0.1-0.8,0.2
		c-0.3,0.1-0.5,0.3-0.7,0.5s-0.4,0.5-0.5,0.8S69.8,140.7,69.8,141.1z"/>
	<path class="st1" d="M77.7,145.9v-7.1h-1.1v-1.1l1.1-0.1v-1.3c0-0.8,0.2-1.5,0.6-2c0.4-0.5,1-0.7,1.8-0.7c0.3,0,0.5,0,0.7,0.1
		c0.2,0.1,0.4,0.1,0.6,0.2l-0.3,1.1c-0.3-0.1-0.6-0.2-0.9-0.2c-0.8,0-1.2,0.5-1.2,1.6v1.3h3l0.2-2.3h1.2v2.3h2.2v1.1h-2.2v4.6
		c0,0.5,0.1,0.9,0.3,1.2c0.2,0.3,0.5,0.4,1,0.4c0.1,0,0.3,0,0.5-0.1s0.3-0.1,0.5-0.2l0.3,1.1c-0.2,0.1-0.5,0.1-0.7,0.2
		c-0.3,0.1-0.5,0.1-0.8,0.1c-0.4,0-0.8-0.1-1.1-0.2s-0.5-0.3-0.7-0.6c-0.2-0.2-0.3-0.5-0.4-0.9c-0.1-0.3-0.1-0.7-0.1-1.1v-4.6h-3
		v7.1H77.7z"/>
	<path class="st1" d="M91,145.9v-8.3h1.2l0.1,1.2h0.1c0.4-0.4,0.8-0.7,1.2-1c0.4-0.3,0.9-0.4,1.5-0.4c0.9,0,1.5,0.3,1.9,0.8
		s0.6,1.3,0.6,2.4v5.2h-1.4v-5c0-0.8-0.1-1.3-0.4-1.7c-0.2-0.3-0.6-0.5-1.2-0.5c-0.4,0-0.8,0.1-1.1,0.3c-0.3,0.2-0.7,0.5-1.1,1v6H91
		z"/>
	<path class="st1" d="M103.5,146.1c-0.5,0-1-0.1-1.5-0.3s-0.9-0.5-1.2-0.8c-0.4-0.4-0.6-0.8-0.8-1.4c-0.2-0.5-0.3-1.1-0.3-1.8
		c0-0.7,0.1-1.3,0.3-1.8c0.2-0.5,0.5-1,0.8-1.4c0.4-0.4,0.8-0.7,1.2-0.8s0.9-0.3,1.5-0.3s1,0.1,1.5,0.3s0.9,0.5,1.2,0.8
		c0.3,0.4,0.6,0.8,0.8,1.4c0.2,0.5,0.3,1.2,0.3,1.8c0,0.7-0.1,1.3-0.3,1.8c-0.2,0.5-0.5,1-0.8,1.4c-0.4,0.4-0.8,0.6-1.2,0.8
		S104,146.1,103.5,146.1z M103.5,144.9c0.4,0,0.7-0.1,1-0.2s0.5-0.4,0.8-0.6c0.2-0.3,0.4-0.6,0.5-1c0.1-0.4,0.2-0.8,0.2-1.3
		c0-0.5-0.1-0.9-0.2-1.3c-0.1-0.4-0.3-0.7-0.5-1c-0.2-0.3-0.5-0.5-0.8-0.7c-0.3-0.2-0.6-0.2-1-0.2s-0.7,0.1-1,0.2
		c-0.3,0.2-0.5,0.4-0.8,0.7s-0.4,0.6-0.5,1c-0.1,0.4-0.2,0.8-0.2,1.3c0,0.5,0.1,0.9,0.2,1.3c0.1,0.4,0.3,0.7,0.5,1
		c0.2,0.3,0.5,0.5,0.8,0.6S103.1,144.9,103.5,144.9z"/>
	<path class="st1" d="M112.3,149.7c-0.5,0-1,0-1.4-0.1c-0.4-0.1-0.8-0.2-1.1-0.4c-0.3-0.2-0.5-0.4-0.7-0.7c-0.2-0.3-0.2-0.6-0.2-1
		c0-0.4,0.1-0.7,0.3-1s0.5-0.6,0.9-0.9v-0.1c-0.2-0.1-0.4-0.3-0.5-0.5c-0.1-0.2-0.2-0.5-0.2-0.8c0-0.4,0.1-0.7,0.3-0.9
		c0.2-0.3,0.4-0.5,0.6-0.6v-0.1c-0.3-0.2-0.5-0.5-0.7-0.9c-0.2-0.4-0.3-0.8-0.3-1.3c0-0.5,0.1-0.9,0.2-1.2c0.2-0.4,0.4-0.7,0.7-0.9
		s0.6-0.5,1-0.6c0.4-0.1,0.8-0.2,1.2-0.2c0.2,0,0.4,0,0.6,0.1s0.4,0.1,0.5,0.1h2.9v1.1h-1.7c0.2,0.2,0.4,0.4,0.5,0.7
		c0.1,0.3,0.2,0.6,0.2,1c0,0.4-0.1,0.8-0.2,1.2c-0.2,0.4-0.4,0.7-0.6,0.9c-0.3,0.2-0.6,0.4-1,0.6c-0.4,0.1-0.8,0.2-1.2,0.2
		c-0.2,0-0.4,0-0.6-0.1c-0.2-0.1-0.4-0.1-0.6-0.2c-0.1,0.1-0.3,0.3-0.4,0.4c-0.1,0.2-0.2,0.3-0.2,0.6c0,0.3,0.1,0.5,0.3,0.6
		s0.6,0.3,1.2,0.3h1.6c1,0,1.7,0.2,2.2,0.5c0.5,0.3,0.7,0.8,0.7,1.5c0,0.4-0.1,0.8-0.3,1.1c-0.2,0.3-0.5,0.6-0.8,0.9
		c-0.4,0.3-0.8,0.5-1.3,0.6C113.5,149.6,112.9,149.7,112.3,149.7z M112.5,148.7c0.4,0,0.8,0,1.1-0.1c0.3-0.1,0.6-0.2,0.8-0.4
		c0.2-0.2,0.4-0.3,0.5-0.5c0.1-0.2,0.2-0.4,0.2-0.6c0-0.4-0.1-0.7-0.4-0.8c-0.3-0.1-0.7-0.2-1.2-0.2H112c-0.2,0-0.3,0-0.5,0
		c-0.2,0-0.4-0.1-0.6-0.1c-0.3,0.2-0.5,0.4-0.6,0.7c-0.1,0.2-0.2,0.5-0.2,0.7c0,0.4,0.2,0.8,0.6,1.1
		C111.1,148.6,111.7,148.7,112.5,148.7z M112.3,142.3c0.2,0,0.5,0,0.7-0.1c0.2-0.1,0.4-0.2,0.6-0.4c0.2-0.2,0.3-0.4,0.4-0.6
		c0.1-0.2,0.1-0.5,0.1-0.8c0-0.6-0.2-1.1-0.5-1.4s-0.8-0.5-1.2-0.5s-0.9,0.2-1.2,0.5c-0.3,0.3-0.5,0.8-0.5,1.4c0,0.3,0,0.6,0.1,0.8
		c0.1,0.2,0.2,0.5,0.4,0.6s0.4,0.3,0.6,0.4C111.8,142.3,112,142.3,112.3,142.3z"/>
	<path class="st1" d="M124.2,149.7c-0.5,0-1,0-1.4-0.1c-0.4-0.1-0.8-0.2-1.1-0.4c-0.3-0.2-0.5-0.4-0.7-0.7c-0.2-0.3-0.2-0.6-0.2-1
		c0-0.4,0.1-0.7,0.3-1s0.5-0.6,0.9-0.9v-0.1c-0.2-0.1-0.4-0.3-0.5-0.5c-0.1-0.2-0.2-0.5-0.2-0.8c0-0.4,0.1-0.7,0.3-0.9
		c0.2-0.3,0.4-0.5,0.6-0.6v-0.1c-0.3-0.2-0.5-0.5-0.7-0.9c-0.2-0.4-0.3-0.8-0.3-1.3c0-0.5,0.1-0.9,0.2-1.2c0.2-0.4,0.4-0.7,0.7-0.9
		s0.6-0.5,1-0.6c0.4-0.1,0.8-0.2,1.2-0.2c0.2,0,0.4,0,0.6,0.1s0.4,0.1,0.5,0.1h2.9v1.1h-1.7c0.2,0.2,0.4,0.4,0.5,0.7
		c0.1,0.3,0.2,0.6,0.2,1c0,0.4-0.1,0.8-0.2,1.2c-0.2,0.4-0.4,0.7-0.6,0.9c-0.3,0.2-0.6,0.4-1,0.6c-0.4,0.1-0.8,0.2-1.2,0.2
		c-0.2,0-0.4,0-0.6-0.1c-0.2-0.1-0.4-0.1-0.6-0.2c-0.1,0.1-0.3,0.3-0.4,0.4c-0.1,0.2-0.2,0.3-0.2,0.6c0,0.3,0.1,0.5,0.3,0.6
		s0.6,0.3,1.2,0.3h1.6c1,0,1.7,0.2,2.2,0.5c0.5,0.3,0.7,0.8,0.7,1.5c0,0.4-0.1,0.8-0.3,1.1c-0.2,0.3-0.5,0.6-0.8,0.9
		c-0.4,0.3-0.8,0.5-1.3,0.6C125.5,149.6,124.9,149.7,124.2,149.7z M124.4,148.7c0.4,0,0.8,0,1.1-0.1c0.3-0.1,0.6-0.2,0.8-0.4
		c0.2-0.2,0.4-0.3,0.5-0.5c0.1-0.2,0.2-0.4,0.2-0.6c0-0.4-0.1-0.7-0.4-0.8c-0.3-0.1-0.7-0.2-1.2-0.2H124c-0.2,0-0.3,0-0.5,0
		c-0.2,0-0.4-0.1-0.6-0.1c-0.3,0.2-0.5,0.4-0.6,0.7c-0.1,0.2-0.2,0.5-0.2,0.7c0,0.4,0.2,0.8,0.6,1.1
		C123.1,148.6,123.7,148.7,124.4,148.7z M124.2,142.3c0.2,0,0.5,0,0.7-0.1c0.2-0.1,0.4-0.2,0.6-0.4c0.2-0.2,0.3-0.4,0.4-0.6
		c0.1-0.2,0.1-0.5,0.1-0.8c0-0.6-0.2-1.1-0.5-1.4s-0.8-0.5-1.2-0.5s-0.9,0.2-1.2,0.5c-0.3,0.3-0.5,0.8-0.5,1.4c0,0.3,0,0.6,0.1,0.8
		c0.1,0.2,0.2,0.5,0.4,0.6s0.4,0.3,0.6,0.4C123.8,142.3,124,142.3,124.2,142.3z"/>
	<path class="st1" d="M133.1,146.1c-0.6,0-1.1-0.1-1.6-0.3s-0.9-0.5-1.3-0.8c-0.4-0.4-0.6-0.8-0.8-1.4c-0.2-0.5-0.3-1.1-0.3-1.8
		c0-0.7,0.1-1.3,0.3-1.8c0.2-0.5,0.5-1,0.8-1.4s0.7-0.7,1.2-0.9c0.4-0.2,0.9-0.3,1.4-0.3c0.5,0,1,0.1,1.4,0.3c0.4,0.2,0.8,0.4,1,0.8
		c0.3,0.3,0.5,0.7,0.6,1.2c0.1,0.5,0.2,1,0.2,1.6c0,0.1,0,0.3,0,0.4s0,0.3,0,0.4h-5.6c0.1,0.9,0.3,1.6,0.8,2.1s1.1,0.8,1.9,0.8
		c0.4,0,0.8-0.1,1.1-0.2c0.3-0.1,0.7-0.3,1-0.5l0.5,0.9c-0.4,0.2-0.8,0.4-1.2,0.6C134.2,146,133.7,146.1,133.1,146.1z M130.5,141.1
		h4.4c0-0.8-0.2-1.5-0.5-1.9c-0.4-0.4-0.9-0.7-1.5-0.7c-0.3,0-0.6,0.1-0.8,0.2c-0.3,0.1-0.5,0.3-0.7,0.5c-0.2,0.2-0.4,0.5-0.5,0.8
		C130.7,140.3,130.6,140.7,130.5,141.1z"/>
	<path class="st1" d="M141.6,146.1c-0.6,0-1.1-0.1-1.6-0.3s-0.9-0.5-1.3-0.8c-0.4-0.4-0.6-0.8-0.8-1.4c-0.2-0.5-0.3-1.1-0.3-1.8
		c0-0.7,0.1-1.3,0.3-1.8c0.2-0.5,0.5-1,0.8-1.4s0.7-0.7,1.2-0.9c0.4-0.2,0.9-0.3,1.4-0.3c0.5,0,1,0.1,1.4,0.3c0.4,0.2,0.8,0.4,1,0.8
		c0.3,0.3,0.5,0.7,0.6,1.2c0.1,0.5,0.2,1,0.2,1.6c0,0.1,0,0.3,0,0.4s0,0.3,0,0.4H139c0.1,0.9,0.3,1.6,0.8,2.1s1.1,0.8,1.9,0.8
		c0.4,0,0.8-0.1,1.1-0.2c0.3-0.1,0.7-0.3,1-0.5l0.5,0.9c-0.4,0.2-0.8,0.4-1.2,0.6C142.6,146,142.1,146.1,141.6,146.1z M139,141.1
		h4.4c0-0.8-0.2-1.5-0.5-1.9c-0.4-0.4-0.9-0.7-1.5-0.7c-0.3,0-0.6,0.1-0.8,0.2c-0.3,0.1-0.5,0.3-0.7,0.5c-0.2,0.2-0.4,0.5-0.5,0.8
		C139.1,140.3,139,140.7,139,141.1z"/>
	<path class="st1" d="M146.6,145.9v-8.3h1.2l0.1,1.2h0.1c0.4-0.4,0.8-0.7,1.2-1c0.4-0.3,0.9-0.4,1.5-0.4c0.9,0,1.5,0.3,1.9,0.8
		s0.6,1.3,0.6,2.4v5.2h-1.4v-5c0-0.8-0.1-1.3-0.4-1.7c-0.2-0.3-0.6-0.5-1.2-0.5c-0.4,0-0.8,0.1-1.1,0.3c-0.3,0.2-0.7,0.5-1.1,1v6
		H146.6z"/>
	<path class="st1" d="M18.2,170.1c-0.5,0-1,0-1.4-0.1c-0.4-0.1-0.8-0.2-1.1-0.4c-0.3-0.2-0.5-0.4-0.7-0.7c-0.2-0.3-0.2-0.6-0.2-1
		c0-0.4,0.1-0.7,0.3-1s0.5-0.6,0.9-0.9v-0.1c-0.2-0.1-0.4-0.3-0.5-0.5c-0.1-0.2-0.2-0.5-0.2-0.8c0-0.4,0.1-0.7,0.3-0.9
		s0.4-0.5,0.6-0.6V163c-0.3-0.2-0.5-0.5-0.7-0.9c-0.2-0.4-0.3-0.8-0.3-1.3c0-0.5,0.1-0.9,0.2-1.2c0.2-0.4,0.4-0.7,0.7-0.9
		s0.6-0.5,1-0.6c0.4-0.1,0.8-0.2,1.2-0.2c0.2,0,0.4,0,0.6,0.1s0.4,0.1,0.5,0.1h2.9v1.1h-1.7c0.2,0.2,0.4,0.4,0.5,0.7
		c0.1,0.3,0.2,0.6,0.2,1c0,0.4-0.1,0.8-0.2,1.2c-0.2,0.4-0.4,0.7-0.6,0.9c-0.3,0.2-0.6,0.4-1,0.6c-0.4,0.1-0.8,0.2-1.2,0.2
		c-0.2,0-0.4,0-0.6-0.1c-0.2-0.1-0.4-0.1-0.6-0.2c-0.1,0.1-0.3,0.3-0.4,0.4c-0.1,0.2-0.2,0.3-0.2,0.6c0,0.3,0.1,0.5,0.3,0.6
		c0.2,0.2,0.6,0.3,1.2,0.3h1.6c1,0,1.7,0.2,2.2,0.5c0.5,0.3,0.7,0.8,0.7,1.5c0,0.4-0.1,0.8-0.3,1.1c-0.2,0.3-0.5,0.6-0.8,0.9
		c-0.4,0.3-0.8,0.5-1.3,0.6C19.4,170,18.9,170.1,18.2,170.1z M18.4,169.1c0.4,0,0.8,0,1.1-0.1c0.3-0.1,0.6-0.2,0.8-0.4
		c0.2-0.2,0.4-0.3,0.5-0.5s0.2-0.4,0.2-0.6c0-0.4-0.1-0.7-0.4-0.8c-0.3-0.1-0.7-0.2-1.2-0.2H18c-0.2,0-0.3,0-0.5,0
		c-0.2,0-0.4-0.1-0.6-0.1c-0.3,0.2-0.5,0.4-0.6,0.7c-0.1,0.2-0.2,0.5-0.2,0.7c0,0.4,0.2,0.8,0.6,1.1S17.7,169.1,18.4,169.1z
		 M18.2,162.7c0.2,0,0.5,0,0.7-0.1c0.2-0.1,0.4-0.2,0.6-0.4c0.2-0.2,0.3-0.4,0.4-0.6c0.1-0.2,0.1-0.5,0.1-0.8c0-0.6-0.2-1.1-0.5-1.4
		c-0.3-0.3-0.8-0.5-1.2-0.5c-0.5,0-0.9,0.2-1.2,0.5s-0.5,0.8-0.5,1.4c0,0.3,0,0.6,0.1,0.8c0.1,0.2,0.2,0.5,0.4,0.6
		c0.2,0.2,0.4,0.3,0.6,0.4C17.8,162.7,18,162.7,18.2,162.7z"/>
	<path class="st1" d="M27.1,166.5c-0.6,0-1.1-0.1-1.6-0.3c-0.5-0.2-0.9-0.5-1.3-0.8c-0.4-0.4-0.6-0.8-0.8-1.4
		c-0.2-0.5-0.3-1.1-0.3-1.8c0-0.7,0.1-1.3,0.3-1.8c0.2-0.5,0.5-1,0.8-1.4c0.3-0.4,0.7-0.7,1.2-0.9c0.4-0.2,0.9-0.3,1.4-0.3
		c0.5,0,1,0.1,1.4,0.3c0.4,0.2,0.8,0.4,1,0.8c0.3,0.3,0.5,0.7,0.6,1.2c0.1,0.5,0.2,1,0.2,1.6c0,0.1,0,0.3,0,0.4s0,0.3,0,0.4h-5.6
		c0.1,0.9,0.3,1.6,0.8,2.1c0.5,0.5,1.1,0.8,1.9,0.8c0.4,0,0.8-0.1,1.1-0.2c0.3-0.1,0.7-0.3,1-0.5l0.5,0.9c-0.4,0.2-0.8,0.4-1.2,0.6
		C28.2,166.4,27.7,166.5,27.1,166.5z M24.5,161.5h4.4c0-0.8-0.2-1.5-0.5-1.9c-0.4-0.4-0.9-0.7-1.5-0.7c-0.3,0-0.6,0.1-0.8,0.2
		c-0.3,0.1-0.5,0.3-0.7,0.5s-0.4,0.5-0.5,0.8S24.6,161.1,24.5,161.5z"/>
	<path class="st1" d="M35,166.5c-1,0-1.9-0.4-2.5-1.1c-0.6-0.7-0.9-1.8-0.9-3.2c0-0.7,0.1-1.3,0.3-1.8c0.2-0.5,0.5-1,0.8-1.4
		c0.3-0.4,0.7-0.7,1.1-0.9s0.9-0.3,1.4-0.3c0.5,0,0.9,0.1,1.2,0.3c0.4,0.2,0.7,0.4,1.1,0.7l-0.1-1.4v-3.2h1.4v12.1h-1.2l-0.1-1h-0.1
		c-0.3,0.3-0.7,0.6-1.1,0.8S35.5,166.5,35,166.5z M35.3,165.3c0.4,0,0.7-0.1,1.1-0.3c0.3-0.2,0.7-0.5,1-0.9v-4.3
		c-0.4-0.3-0.7-0.5-1-0.7c-0.3-0.1-0.7-0.2-1-0.2c-0.3,0-0.6,0.1-0.9,0.2c-0.3,0.2-0.5,0.4-0.8,0.6c-0.2,0.3-0.4,0.6-0.5,1
		c-0.1,0.4-0.2,0.8-0.2,1.3c0,1,0.2,1.8,0.6,2.3S34.6,165.3,35.3,165.3z"/>
	<path class="st1" d="M44.8,166.5c-0.5,0-1-0.1-1.5-0.3s-0.9-0.5-1.2-0.8c-0.4-0.4-0.6-0.8-0.8-1.4c-0.2-0.5-0.3-1.1-0.3-1.8
		c0-0.7,0.1-1.3,0.3-1.8c0.2-0.5,0.5-1,0.8-1.4c0.4-0.4,0.8-0.7,1.2-0.8s0.9-0.3,1.5-0.3c0.5,0,1,0.1,1.5,0.3s0.9,0.5,1.2,0.8
		s0.6,0.8,0.8,1.4c0.2,0.5,0.3,1.2,0.3,1.8c0,0.7-0.1,1.3-0.3,1.8c-0.2,0.5-0.5,1-0.8,1.4c-0.4,0.4-0.8,0.6-1.2,0.8
		S45.4,166.5,44.8,166.5z M44.8,165.3c0.4,0,0.7-0.1,1-0.2c0.3-0.2,0.5-0.4,0.8-0.6c0.2-0.3,0.4-0.6,0.5-1c0.1-0.4,0.2-0.8,0.2-1.3
		c0-0.5-0.1-0.9-0.2-1.3c-0.1-0.4-0.3-0.7-0.5-1c-0.2-0.3-0.5-0.5-0.8-0.7c-0.3-0.2-0.6-0.2-1-0.2c-0.4,0-0.7,0.1-1,0.2
		c-0.3,0.2-0.5,0.4-0.8,0.7c-0.2,0.3-0.4,0.6-0.5,1c-0.1,0.4-0.2,0.8-0.2,1.3c0,0.5,0.1,0.9,0.2,1.3c0.1,0.4,0.3,0.7,0.5,1
		c0.2,0.3,0.5,0.5,0.8,0.6C44.2,165.2,44.5,165.3,44.8,165.3z"/>
	<path class="st1" d="M52.1,166.3l-2.3-8.3h1.4l1.2,4.8c0.1,0.4,0.2,0.8,0.3,1.2c0.1,0.4,0.2,0.8,0.2,1.1H53
		c0.1-0.4,0.2-0.8,0.3-1.1c0.1-0.4,0.2-0.8,0.3-1.1l1.3-4.8h1.4l1.3,4.8c0.1,0.4,0.2,0.8,0.3,1.2c0.1,0.4,0.2,0.8,0.3,1.1h0.1
		c0.1-0.4,0.2-0.8,0.3-1.1c0.1-0.4,0.2-0.8,0.3-1.2l1.2-4.8h1.3l-2.2,8.3h-1.7l-1.2-4.4c-0.1-0.4-0.2-0.8-0.3-1.2
		c-0.1-0.4-0.2-0.8-0.3-1.2h-0.1c-0.1,0.4-0.2,0.8-0.3,1.2s-0.2,0.8-0.3,1.2l-1.2,4.4H52.1z"/>
	<path class="st1" d="M63,166.3V158h1.2l0.1,1.2h0.1c0.4-0.4,0.8-0.7,1.2-1c0.4-0.3,0.9-0.4,1.5-0.4c0.9,0,1.5,0.3,1.9,0.8
		s0.6,1.3,0.6,2.4v5.2h-1.4v-5c0-0.8-0.1-1.3-0.4-1.7c-0.2-0.3-0.6-0.5-1.2-0.5c-0.4,0-0.8,0.1-1.1,0.3c-0.3,0.2-0.7,0.5-1.1,1v6H63
		z"/>
	<path class="st1" d="M73.8,166.5c-0.5,0-0.9-0.2-1.1-0.5c-0.2-0.3-0.3-0.8-0.3-1.4v-10.4h1.4v10.5c0,0.2,0,0.4,0.1,0.5
		c0.1,0.1,0.2,0.1,0.3,0.1c0,0,0.1,0,0.1,0c0,0,0.1,0,0.2,0l0.2,1.1c-0.1,0-0.2,0.1-0.3,0.1C74.1,166.5,74,166.5,73.8,166.5z"/>
	<path class="st1" d="M79.8,166.5c-0.5,0-1-0.1-1.5-0.3s-0.9-0.5-1.2-0.8c-0.4-0.4-0.6-0.8-0.8-1.4c-0.2-0.5-0.3-1.1-0.3-1.8
		c0-0.7,0.1-1.3,0.3-1.8c0.2-0.5,0.5-1,0.8-1.4c0.4-0.4,0.8-0.7,1.2-0.8s0.9-0.3,1.5-0.3c0.5,0,1,0.1,1.5,0.3s0.9,0.5,1.2,0.8
		s0.6,0.8,0.8,1.4c0.2,0.5,0.3,1.2,0.3,1.8c0,0.7-0.1,1.3-0.3,1.8c-0.2,0.5-0.5,1-0.8,1.4c-0.4,0.4-0.8,0.6-1.2,0.8
		S80.3,166.5,79.8,166.5z M79.8,165.3c0.4,0,0.7-0.1,1-0.2c0.3-0.2,0.5-0.4,0.8-0.6c0.2-0.3,0.4-0.6,0.5-1c0.1-0.4,0.2-0.8,0.2-1.3
		c0-0.5-0.1-0.9-0.2-1.3c-0.1-0.4-0.3-0.7-0.5-1c-0.2-0.3-0.5-0.5-0.8-0.7c-0.3-0.2-0.6-0.2-1-0.2c-0.4,0-0.7,0.1-1,0.2
		c-0.3,0.2-0.5,0.4-0.8,0.7c-0.2,0.3-0.4,0.6-0.5,1c-0.1,0.4-0.2,0.8-0.2,1.3c0,0.5,0.1,0.9,0.2,1.3c0.1,0.4,0.3,0.7,0.5,1
		c0.2,0.3,0.5,0.5,0.8,0.6C79.2,165.2,79.5,165.3,79.8,165.3z"/>
	<path class="st1" d="M87.5,166.5c-0.7,0-1.3-0.2-1.7-0.6c-0.5-0.4-0.7-1-0.7-1.7c0-0.9,0.4-1.6,1.2-2.1c0.8-0.5,2.1-0.8,3.9-1
		c0-0.3,0-0.5-0.1-0.8c-0.1-0.2-0.1-0.5-0.3-0.7c-0.1-0.2-0.3-0.3-0.5-0.5c-0.2-0.1-0.5-0.2-0.8-0.2c-0.5,0-0.9,0.1-1.3,0.3
		c-0.4,0.2-0.8,0.4-1.1,0.6l-0.5-1c0.4-0.2,0.9-0.5,1.4-0.7s1.2-0.3,1.8-0.3c1,0,1.7,0.3,2.2,0.9c0.5,0.6,0.7,1.4,0.7,2.5v5.1h-1.2
		l-0.1-1h-0.1c-0.4,0.3-0.8,0.6-1.3,0.8C88.5,166.4,88,166.5,87.5,166.5z M87.9,165.4c0.4,0,0.8-0.1,1.1-0.3
		c0.4-0.2,0.7-0.5,1.1-0.8V162c-0.7,0.1-1.3,0.2-1.7,0.3c-0.5,0.1-0.9,0.3-1.1,0.4s-0.5,0.4-0.6,0.6c-0.1,0.2-0.2,0.5-0.2,0.7
		c0,0.5,0.1,0.8,0.4,1S87.5,165.4,87.9,165.4z"/>
	<path class="st1" d="M97,166.5c-1,0-1.9-0.4-2.5-1.1c-0.6-0.7-0.9-1.8-0.9-3.2c0-0.7,0.1-1.3,0.3-1.8c0.2-0.5,0.5-1,0.8-1.4
		c0.3-0.4,0.7-0.7,1.1-0.9s0.9-0.3,1.4-0.3c0.5,0,0.9,0.1,1.2,0.3c0.4,0.2,0.7,0.4,1.1,0.7l-0.1-1.4v-3.2h1.4v12.1h-1.2l-0.1-1h-0.1
		c-0.3,0.3-0.7,0.6-1.1,0.8S97.5,166.5,97,166.5z M97.3,165.3c0.4,0,0.7-0.1,1.1-0.3c0.3-0.2,0.7-0.5,1-0.9v-4.3
		c-0.4-0.3-0.7-0.5-1-0.7c-0.3-0.1-0.7-0.2-1-0.2c-0.3,0-0.6,0.1-0.9,0.2c-0.3,0.2-0.5,0.4-0.8,0.6c-0.2,0.3-0.4,0.6-0.5,1
		c-0.1,0.4-0.2,0.8-0.2,1.3c0,1,0.2,1.8,0.6,2.3S96.6,165.3,97.3,165.3z"/>
	<path class="st1" d="M106.9,166.5c-0.6,0-1.1-0.1-1.6-0.3s-0.9-0.5-1.3-0.8c-0.4-0.4-0.6-0.8-0.8-1.4c-0.2-0.5-0.3-1.1-0.3-1.8
		c0-0.7,0.1-1.3,0.3-1.8c0.2-0.5,0.5-1,0.8-1.4s0.7-0.7,1.2-0.9c0.4-0.2,0.9-0.3,1.4-0.3c0.5,0,1,0.1,1.4,0.3c0.4,0.2,0.8,0.4,1,0.8
		c0.3,0.3,0.5,0.7,0.6,1.2c0.1,0.5,0.2,1,0.2,1.6c0,0.1,0,0.3,0,0.4s0,0.3,0,0.4h-5.6c0.1,0.9,0.3,1.6,0.8,2.1s1.1,0.8,1.9,0.8
		c0.4,0,0.8-0.1,1.1-0.2c0.3-0.1,0.7-0.3,1-0.5l0.5,0.9c-0.4,0.2-0.8,0.4-1.2,0.6C108,166.4,107.5,166.5,106.9,166.5z M104.3,161.5
		h4.4c0-0.8-0.2-1.5-0.5-1.9c-0.4-0.4-0.9-0.7-1.5-0.7c-0.3,0-0.6,0.1-0.8,0.2c-0.3,0.1-0.5,0.3-0.7,0.5c-0.2,0.2-0.4,0.5-0.5,0.8
		C104.5,160.7,104.4,161.1,104.3,161.5z"/>
	<path class="st1" d="M117.2,166.3l-3-8.3h1.4l1.6,4.7c0.1,0.4,0.3,0.8,0.4,1.2c0.1,0.4,0.3,0.8,0.4,1.2h0.1
		c0.1-0.4,0.2-0.8,0.4-1.2c0.1-0.4,0.2-0.8,0.4-1.2l1.6-4.7h1.4l-2.9,8.3H117.2z"/>
	<path class="st1" d="M126.6,166.5c-0.6,0-1.1-0.1-1.6-0.3s-0.9-0.5-1.3-0.8c-0.4-0.4-0.6-0.8-0.8-1.4c-0.2-0.5-0.3-1.1-0.3-1.8
		c0-0.7,0.1-1.3,0.3-1.8c0.2-0.5,0.5-1,0.8-1.4s0.7-0.7,1.2-0.9c0.4-0.2,0.9-0.3,1.4-0.3c0.5,0,1,0.1,1.4,0.3c0.4,0.2,0.8,0.4,1,0.8
		c0.3,0.3,0.5,0.7,0.6,1.2c0.1,0.5,0.2,1,0.2,1.6c0,0.1,0,0.3,0,0.4s0,0.3,0,0.4h-5.6c0.1,0.9,0.3,1.6,0.8,2.1s1.1,0.8,1.9,0.8
		c0.4,0,0.8-0.1,1.1-0.2c0.3-0.1,0.7-0.3,1-0.5l0.5,0.9c-0.4,0.2-0.8,0.4-1.2,0.6C127.7,166.4,127.2,166.5,126.6,166.5z M124,161.5
		h4.4c0-0.8-0.2-1.5-0.5-1.9c-0.4-0.4-0.9-0.7-1.5-0.7c-0.3,0-0.6,0.1-0.8,0.2c-0.3,0.1-0.5,0.3-0.7,0.5c-0.2,0.2-0.4,0.5-0.5,0.8
		C124.2,160.7,124.1,161.1,124,161.5z"/>
	<path class="st1" d="M131.7,166.3V158h1.2l0.1,1.5h0.1c0.3-0.5,0.6-0.9,1-1.2c0.4-0.3,0.8-0.5,1.3-0.5c0.3,0,0.6,0.1,0.9,0.2
		l-0.3,1.2c-0.1,0-0.3-0.1-0.4-0.1s-0.3,0-0.4,0c-0.4,0-0.7,0.1-1.1,0.4s-0.7,0.8-1,1.5v5.3H131.7z"/>
	<path class="st1" d="M137.6,166.3v-12.1h1.4v3.3l-0.1,1.7c0.4-0.4,0.8-0.7,1.2-1s0.9-0.4,1.5-0.4c0.9,0,1.5,0.3,1.9,0.8
		s0.6,1.3,0.6,2.4v5.2h-1.4v-5c0-0.8-0.1-1.3-0.4-1.7c-0.2-0.3-0.6-0.5-1.2-0.5c-0.4,0-0.8,0.1-1.1,0.3c-0.3,0.2-0.7,0.5-1.1,1v6
		H137.6z"/>
	<path class="st1" d="M148.8,166.5c-0.7,0-1.3-0.2-1.7-0.6s-0.7-1-0.7-1.7c0-0.9,0.4-1.6,1.2-2.1c0.8-0.5,2.1-0.8,3.9-1
		c0-0.3,0-0.5-0.1-0.8c-0.1-0.2-0.1-0.5-0.3-0.7c-0.1-0.2-0.3-0.3-0.5-0.5c-0.2-0.1-0.5-0.2-0.8-0.2c-0.5,0-0.9,0.1-1.3,0.3
		c-0.4,0.2-0.8,0.4-1.1,0.6l-0.5-1c0.4-0.2,0.9-0.5,1.4-0.7c0.6-0.2,1.2-0.3,1.8-0.3c1,0,1.7,0.3,2.2,0.9c0.5,0.6,0.7,1.4,0.7,2.5
		v5.1h-1.2l-0.1-1h-0.1c-0.4,0.3-0.8,0.6-1.3,0.8S149.3,166.5,148.8,166.5z M149.2,165.4c0.4,0,0.8-0.1,1.1-0.3
		c0.4-0.2,0.7-0.5,1.1-0.8V162c-0.7,0.1-1.3,0.2-1.7,0.3c-0.5,0.1-0.8,0.3-1.1,0.4s-0.5,0.4-0.6,0.6c-0.1,0.2-0.2,0.5-0.2,0.7
		c0,0.5,0.1,0.8,0.4,1S148.8,165.4,149.2,165.4z"/>
	<path class="st1" d="M156.9,166.5c-0.5,0-0.9-0.2-1.1-0.5c-0.2-0.3-0.3-0.8-0.3-1.4v-10.4h1.4v10.5c0,0.2,0,0.4,0.1,0.5
		c0.1,0.1,0.2,0.1,0.3,0.1c0,0,0.1,0,0.1,0c0,0,0.1,0,0.2,0l0.2,1.1c-0.1,0-0.2,0.1-0.3,0.1C157.3,166.5,157.1,166.5,156.9,166.5z"
		/>
	<path class="st1" d="M163.1,166.5c-0.6,0-1.1-0.1-1.6-0.3s-0.9-0.5-1.3-0.8c-0.4-0.4-0.6-0.8-0.8-1.4c-0.2-0.5-0.3-1.1-0.3-1.8
		c0-0.7,0.1-1.3,0.3-1.8c0.2-0.5,0.5-1,0.8-1.4s0.7-0.7,1.2-0.9c0.4-0.2,0.9-0.3,1.4-0.3c0.5,0,1,0.1,1.4,0.3c0.4,0.2,0.8,0.4,1,0.8
		c0.3,0.3,0.5,0.7,0.6,1.2c0.1,0.5,0.2,1,0.2,1.6c0,0.1,0,0.3,0,0.4s0,0.3,0,0.4h-5.6c0.1,0.9,0.3,1.6,0.8,2.1s1.1,0.8,1.9,0.8
		c0.4,0,0.8-0.1,1.1-0.2c0.3-0.1,0.7-0.3,1-0.5l0.5,0.9c-0.4,0.2-0.8,0.4-1.2,0.6C164.2,166.4,163.7,166.5,163.1,166.5z
		 M160.5,161.5h4.4c0-0.8-0.2-1.5-0.5-1.9c-0.4-0.4-0.9-0.7-1.5-0.7c-0.3,0-0.6,0.1-0.8,0.2c-0.3,0.1-0.5,0.3-0.7,0.5
		c-0.2,0.2-0.4,0.5-0.5,0.8C160.7,160.7,160.6,161.1,160.5,161.5z"/>
	<path class="st1" d="M168.2,166.3V158h1.2l0.1,1.2h0.1c0.4-0.4,0.8-0.7,1.2-1c0.4-0.3,0.9-0.4,1.5-0.4c0.9,0,1.5,0.3,1.9,0.8
		s0.6,1.3,0.6,2.4v5.2h-1.4v-5c0-0.8-0.1-1.3-0.4-1.7c-0.2-0.3-0.6-0.5-1.2-0.5c-0.4,0-0.8,0.1-1.1,0.3c-0.3,0.2-0.7,0.5-1.1,1v6
		H168.2z"/>
</g>
</svg>
